# AST/ASF file generated using VICON BodyLanguage
# -----------------------------------------------
:version 1.10
:name VICON
:units
  mass 1.0
  length 0.45
  angle deg
:documentation
   .ast/.asf automatically generated from VICON data using
   VICON BodyBuilder and BodyLanguage model FoxedUp or BRILLIANT.MOD
:root
   order TX TY TZ RX RY RZ
   axis XYZ
   position 0 0 0  
   orientation 0 0 0 
:bonedata
  begin
     id 1 
     name lhipjoint
     direction 0.692814 -0.645514 0.321437 
     length 2.38754 
     axis 0 0 0  XYZ
  end
  begin
     id 2 
     name lfemur
     direction 0.34202 -0.939693 0  
     length 6.41921  
     axis 0 0 20  XYZ
    dof rx ry rz
    limits (-160.0 20.0)
           (-70.0 70.0)
           (-60.0 70.0)
  end
  begin
     id 3 
     name ltibia
     direction 0.34202 -0.939693 0   
     length 6.98247   
     axis 0 0 20   XYZ
    dof rx
    limits (-10.0 170.0)
  end
  begin
     id 4 
     name lfoot
     direction 0.0947186 -0.260237 0.960888   
     length 1.83034   
     axis -90 7.62852e-016 20   XYZ
    dof rx rz
    limits (-45.0 90.0)
           (-70.0 20.0)
  end
  begin
     id 5 
     name ltoes
     direction 1.53538e-011 -4.21952e-011 1   
     length 0.920499   
     axis -90 7.62852e-016 20   XYZ
    dof rx
    limits (-90.0 20.0)
  end
  begin
     id 6 
     name rhipjoint
     direction -0.631686 -0.693949 0.345555   
     length 2.2209  
     axis 0 0 0  XYZ 
  end
  begin
     id 7 
     name rfemur
     direction -0.34202 -0.939693 0   
     length 6.49542   
     axis 0 0 -20   XYZ
    dof rx ry rz
    limits (-160.0 20.0)
           (-70.0 70.0)
           (-70.0 60.0)
  end
  begin
     id 8 
     name rtibia
     direction -0.34202 -0.939693 0   
     length 7.21712   
     axis 0 0 -20   XYZ
    dof rx
    limits (-10.0 170.0)
 end
 begin
     id 9 
     name rfoot
     direction -0.0825378 -0.226771 0.970444   
     length 1.89724  
     axis -90 -7.62852e-016 -20   XYZ
    dof rx rz
    limits (-45.0 90.0)
           (-20.0 70.0)
  end
  begin
     id 10 
     name rtoes
     direction -1.53515e-011 -4.22016e-011 1   
     length 0.955868   
     axis -90 -7.62852e-016 -20   XYZ
    dof rx
    limits (-90.0 20.0)
  end
  begin
     id 11 
     name lowerback
     direction -0.0104711 0.984802 -0.173368   
     length 1.84931   
     axis 0 0 0   XYZ
    dof rx ry rz
    limits (-20.0 45.0)
           (-30.0 30.0)
           (-30.0 30.0)
  end
  begin
     id 12 
     name upperback
     direction -0.00286433 0.999996 -0.000382853   
     length 1.85768   
     axis 0 0 0   XYZ
    dof rx ry rz
    limits (-20.0 45.0)
           (-30.0 30.0)
           (-30.0 30.0)
  end
  begin
     id 13 
     name thorax
     direction 0.00167534 0.996793 0.0800069   
     length 1.92   
     axis 0 0 0   XYZ
    dof rx ry rz
    limits (-20.0 45.0)
           (-30.0 30.0)
           (-30.0 30.0)
  end
  begin
     id 14 
     name lowerneck
     direction -0.0672491 0.995415 0.068018   
     length 1.58923   
     axis 0 0 0   XYZ
    dof rx ry rz
    limits (-20.0 45.0)
           (-30.0 30.0)
           (-30.0 30.0)
  end
  begin
     id 15 
     name upperneck
     direction 0.0958019 0.982476 -0.159884   
     length 1.60189   
     axis 0 0 0   XYZ
    dof rx ry rz
    limits (-20.0 45.0)
           (-30.0 30.0)
           (-30.0 30.0)
  end
  begin
     id 16
     name head
     direction 0.032989 0.997338 -0.0650226  
     length 1.61681  
     axis 0 0 0   XYZ
    dof rx ry rz
    limits (-20.0 45.0)
           (-30.0 30.0)
           (-30.0 30.0)
  end
  begin
     id 17 
     name lclavicle
     direction 0.954279 0.298875 -0.00496069  
     length 2.99449  
     axis 0 0 0   XYZ
    dof ry rz
    limits (-20.0 10.0)
           (0.0 20.0)
  end
  begin
     id 18 
     name lhumerus
     direction 1 -4.48985e-011 -4.2057e-027   
     length 4.79185   
     axis 180 -30 -90   XYZ
    dof rx ry rz
    limits (-60.0 90.0)
           (-90.0 90.0)
           (-90.0 90.0)
  end
  begin
     id 19
     name lradius
     direction 1 -4.48945e-011 1.15441e-028   
     length 2.65553   
     axis 180 -30 -90   XYZ
    dof rx
    limits (-10.0 170.0)
  end
  begin
     id 20
     name lwrist
     direction 1 -4.4899e-011 4.8894e-028   
     length 1.32777   
     axis -2.56392e-016 90 90   XYZ
    dof ry
    limits (-180.0 0.0)
 end
  begin
     id 21 
     name lhand
     direction 1 -4.48908e-011 9.7788e-028   
     length 0.743904   
     axis -6.23971e-016 90 90   XYZ
    dof rx rz
    limits (-90.0 90.0)
           (-45.0 45.0)
  end
  begin
     id 22 
     name lfingers
     direction 1 -4.49068e-011 1.95576e-027   
     length 0.599754   
     axis -1.24794e-015 90 90   XYZ
    dof rx
    limits (0.0 90.0)
  end
  begin
     id 23
     name lthumb
     direction 0.707107 -6.34883e-011 0.707107   
     length 0.861131   
     axis -90 45 2.85299e-015   XYZ
    dof rx rz
    limits (-45.0 45.0)
           (-45.0 45.0)
  end
  begin
     id 24 
     name rclavicle
     direction -0.957921 0.286916 0.00811568   
     length 3.06817  
     axis 0 0 0   XYZ 
    dof ry rz
    limits (-10.0 20.0)
           (-20.0 0.0)
  end
  begin
     id 25 
     name rhumerus
     direction -1 -4.48971e-011 -3.07942e-027  
     length 4.77254   
     axis 180 30 90   XYZ
    dof rx ry rz
    limits (-90.0 60.0)
           (-90.0 90.0)
           (-90.0 90.0)
  end
  begin
     id 26 
     name rradius
     direction -1 -4.48957e-011 -9.6815e-028   
     length 2.75995   
     axis 180 30 90   XYZ
    dof rx
    limits (-10.0 170.0)
  end
  begin
     id 27 
     name rwrist
     direction -1 -4.48979e-011 4.8894e-028   
     length 1.37997   
     axis -2.56392e-016 -90 -90   XYZ
    dof ry
    limits (-180.0 0.0)
  end
  begin
     id 28
     name rhand
     direction -1 -4.48906e-011 9.7788e-028   
     length 0.701619   
     axis -6.23971e-016 -90 -90   XYZ
    dof rx rz
    limits (-90.0 90.0)
           (-45.0 45.0)
  end
  begin
     id 29
     name rfingers
     direction -1 -4.49018e-011 1.95576e-027   
     length 0.565663   
     axis -1.24794e-015 -90 -90   XYZ
    dof rx
    limits (0.0 90.0)
  end
  begin
     id 30
     name rthumb
     direction -0.707107 -6.34881e-011 0.707107   
     length 0.812183   
     axis -90 -45 -2.85299e-015   XYZ
    dof rx rz
    limits (-45.0 45.0)
           (-45.0 45.0)
  end
:hierarchy
  begin
    root lhipjoint rhipjoint lowerback
    lhipjoint lfemur
    lfemur ltibia
    ltibia lfoot
    lfoot ltoes
    rhipjoint rfemur
    rfemur rtibia
    rtibia rfoot
    rfoot rtoes
    lowerback upperback
    upperback thorax
    thorax lowerneck lclavicle rclavicle
    lowerneck upperneck
    upperneck head
    lclavicle lhumerus
    lhumerus lradius
    lradius lwrist
    lwrist lhand lthumb
    lhand lfingers
    rclavicle rhumerus
    rhumerus rradius
    rradius rwrist
    rwrist rhand rthumb
    rhand rfingers
  end

#!OML:ASF F:\VICON\USERDATA\INSTALL\rory3\rory3.ASF
:FULLY-SPECIFIED
:DEGREES
1112
root 0.333568 15.4142 -1.77458 3.16428 -0.276521 -0.38742
lowerback 18.4296 0.678647 -2.42329
upperback 7.92757 0.481244 0.0137181
thorax -1.83266 0.187529 1.29333
lowerneck -3.14981 -7.56625 -16.1243
upperneck 20.4359 -11.3625 13.2929
head 8.52946 -5.57809 6.17009
rclavicle -1.09332e-015 4.77083e-015
rhumerus 7.8337 18.9766 -71.592
rradius 120.087
rwrist 11.1042
rhand 17.3761 6.08865
rfingers 7.12502
rthumb 42.0834 -18.4734
lclavicle -1.09332e-015 4.77083e-015
lhumerus 1.83945 -27.8028 72.4175
lradius 123.971
lwrist 2.66733
lhand 5.15224 37.1091
lfingers 7.12502
lthumb 30.5152 64.6019
rfemur -26.6362 11.5828 14.8159
rtibia 43.6473
rfoot -15.3791 -13.0575
rtoes -19.5521
lfemur -25.8908 -9.99306 -15.118
ltibia 41.4929
lfoot -14.6875 7.44828
ltoes -15.7072
1113
root 0.332843 15.4135 -1.77393 3.10868 -0.181225 -0.482487
lowerback 18.2838 0.539531 -1.95528
upperback 8.06779 0.373189 -0.277648
thorax -1.60139 0.145891 0.742877
lowerneck -3.25319 -7.5295 -15.833
upperneck 20.3639 -11.3575 13.4614
head 8.51255 -5.53894 6.17767
rclavicle -5.1684e-015 1.03368e-014
rhumerus 7.13615 19.6505 -71.8847
rradius 119.187
rwrist 11.7256
rhand 18.0533 5.99077
rfingers 7.12502
rthumb 42.7174 -18.3543
lclavicle -5.1684e-015 1.03368e-014
lhumerus 2.10967 -27.9562 71.9756
lradius 124.558
lwrist 3.80039
lhand 6.28441 36.3742
lfingers 7.12502
lthumb 31.5943 63.6606
rfemur -26.5403 11.6127 14.9418
rtibia 43.6321
rfoot -15.3925 -13.1463
rtoes -19.3169
lfemur -25.8748 -9.95512 -15.0181
ltibia 41.5304
lfoot -14.6934 7.30932
ltoes -15.6337
1114
root 0.332081 15.4139 -1.77191 3.03725 -0.0545059 -0.512277
lowerback 18.1251 0.502881 -1.89967
upperback 8.23786 0.341197 -0.279539
thorax -1.33699 0.128336 0.716585
lowerneck -3.3741 -7.54262 -15.8467
upperneck 20.2287 -11.3468 13.4742
head 8.48928 -5.52911 6.17838
rclavicle 5.96354e-015 -2.98177e-015
rhumerus 6.44151 20.4389 -71.6834
rradius 118.431
rwrist 11.9698
rhand 20.085 6.173
rfingers 7.12502
rthumb 44.6143 -17.4769
lclavicle 5.96354e-015 -2.98177e-015
lhumerus 2.47051 -27.893 72.0136
lradius 125.081
lwrist 4.5168
lhand 6.79862 35.7519
lfingers 7.12502
lthumb 32.084 62.941
rfemur -26.4256 11.6291 15.0003
rtibia 43.6293
rfoot -15.4333 -13.2808
rtoes -19.4181
lfemur -25.8258 -9.96105 -15.0012
ltibia 41.554
lfoot -14.7121 7.19816
ltoes -15.4306
1115
root 0.332476 15.4135 -1.76785 2.95913 0.0656833 -0.483086
lowerback 18.0529 0.571838 -2.14776
upperback 8.35477 0.402173 -0.0569511
thorax -1.17819 0.146201 1.08065
lowerneck -3.4927 -7.6112 -16.089
upperneck 20.1753 -11.3591 13.3158
head 8.50348 -5.55825 6.15449
rclavicle -2.48481e-015 2.18663e-015
rhumerus 5.58085 21.2053 -71.1525
rradius 117.806
rwrist 12.0904
rhand 21.7658 6.41746
rfingers 7.12502
rthumb 46.1764 -16.6033
lclavicle -2.48481e-015 2.18663e-015
lhumerus 2.83277 -27.702 72.4977
lradius 125.569
lwrist 4.76739
lhand 6.91756 35.5035
lfingers 7.12502
lthumb 32.1972 62.6697
rfemur -26.2964 11.6494 14.9888
rtibia 43.64
rfoot -15.4287 -13.4659
rtoes -19.7601
lfemur -25.7592 -9.97555 -15.0619
ltibia 41.5842
lfoot -14.7224 7.09853
ltoes -15.3155
1116
root 0.333075 15.4117 -1.76239 2.86392 0.147023 -0.491377
lowerback 18.1349 0.660662 -2.39619
upperback 8.35629 0.483954 0.19009
thorax -1.22377 0.176332 1.4661
lowerneck -3.48789 -7.65014 -16.4482
upperneck 20.2176 -11.3522 13.198
head 8.53404 -5.58892 6.17354
rclavicle 1.98785e-015 4.77083e-015
rhumerus 4.42113 22.0225 -70.7937
rradius 117.257
rwrist 12.066
rhand 22.8304 6.53942
rfingers 7.12502
rthumb 47.1621 -16.0551
lclavicle 1.98785e-015 4.77083e-015
lhumerus 3.11153 -27.4953 73.041
lradius 126.004
lwrist 4.62174
lhand 6.71598 35.1269
lfingers 7.12502
lthumb 32.0053 62.3318
rfemur -26.1574 11.6917 15.0172
rtibia 43.6691
rfoot -15.4695 -13.5647
rtoes -19.5545
lfemur -25.6691 -9.99478 -15.0857
ltibia 41.6308
lfoot -14.7042 7.0595
ltoes -15.4536
1117
root 0.331046 15.4082 -1.75924 2.80953 0.261155 -0.521071
lowerback 18.2659 0.685174 -2.44543
upperback 8.29213 0.507053 0.282526
thorax -1.36155 0.187244 1.58645
lowerneck -3.43494 -7.66231 -16.6937
upperneck 20.2864 -11.3482 13.1638
head 8.5619 -5.60928 6.20575
rclavicle 2.98177e-016 7.05686e-015
rhumerus 3.08588 22.7249 -70.8526
rradius 116.828
rwrist 11.6934
rhand 23.9401 6.71146
rfingers 7.12502
rthumb 48.1863 -15.414
lclavicle 2.98177e-016 7.05686e-015
lhumerus 3.3302 -27.2594 73.3308
lradius 126.332
lwrist 4.32454
lhand 6.12747 34.5576
lfingers 7.12502
lthumb 31.4448 61.8733
rfemur -26.0833 11.7329 15.0728
rtibia 43.7298
rfoot -15.5479 -13.7117
rtoes -19.667
lfemur -25.6636 -9.99678 -15.0555
ltibia 41.6909
lfoot -14.6978 6.90959
ltoes -15.1159
1118
root 0.329335 15.4028 -1.76003 2.83943 0.377738 -0.514119
lowerback 18.4485 0.625987 -2.21158
upperback 8.13549 0.456305 0.106482
thorax -1.61934 0.175338 1.27669
lowerneck -3.36522 -7.6288 -16.6538
upperneck 20.375 -11.3301 13.1907
head 8.57443 -5.59923 6.21578
rclavicle -1.2921e-015 -3.77691e-015
rhumerus 1.59847 23.2072 -71.4271
rradius 116.59
rwrist 11.0212
rhand 25.159 6.69499
rfingers 7.12502
rthumb 49.3071 -14.8841
lclavicle -1.2921e-015 -3.77691e-015
lhumerus 3.48672 -26.885 73.3051
lradius 126.651
lwrist 3.94199
lhand 5.87126 33.8685
lfingers 7.12502
lthumb 31.2006 61.2316
rfemur -26.1516 11.7621 15.0647
rtibia 43.8295
rfoot -15.578 -13.8325
rtoes -19.7993
lfemur -25.785 -9.97341 -15.0489
ltibia 41.7734
lfoot -14.7264 6.78466
ltoes -15.3201
1119
root 0.328952 15.3974 -1.7616 2.81373 0.459758 -0.41877
lowerback 18.6373 0.609357 -2.13402
upperback 8.02773 0.437253 -0.0265927
thorax -1.82996 0.173142 1.09483
lowerneck -3.27909 -7.58273 -16.6085
upperneck 20.3867 -11.2706 13.1295
head 8.5458 -5.57588 6.19691
rclavicle -4.47266e-015 -5.1684e-015
rhumerus 0.336974 23.4937 -71.8766
rradius 116.497
rwrist 9.94215
rhand 26.3409 6.45805
rfingers 7.12502
rthumb 50.3894 -14.5578
lclavicle -4.47266e-015 -5.1684e-015
lhumerus 3.83358 -26.4623 73.2877
lradius 127.079
lwrist 3.71094
lhand 5.66634 33.6586
lfingers 7.12502
lthumb 31.0053 61.0591
rfemur -26.1773 11.8107 14.9609
rtibia 43.9482
rfoot -15.6396 -13.933
rtoes -19.7714
lfemur -25.8278 -9.97878 -15.1563
ltibia 41.8657
lfoot -14.7417 6.7129
ltoes -15.6572
1120
root 0.325922 15.3912 -1.76163 2.74645 0.549062 -0.357841
lowerback 18.7294 0.620313 -2.14532
upperback 8.01101 0.445916 -0.0717894
thorax -1.89523 0.178975 1.0513
lowerneck -3.2254 -7.55133 -16.6062
upperneck 20.3675 -11.2184 13.0652
head 8.51687 -5.55761 6.18128
rclavicle -6.4605e-015 -3.97569e-016
rhumerus -0.641195 23.4858 -72.2081
rradius 116.486
rwrist 8.5303
rhand 27.2706 6.42003
rfingers 7.12502
rthumb 51.2372 -14.128
lclavicle -6.4605e-015 -3.97569e-016
lhumerus 4.36305 -26.1504 73.2123
lradius 127.449
lwrist 3.53118
lhand 4.98322 33.5334
lfingers 7.12502
lthumb 30.354 61.056
rfemur -26.1392 11.8506 14.9229
rtibia 44.0649
rfoot -15.7085 -14.0844
rtoes -19.7031
lfemur -25.8195 -9.95027 -15.2349
ltibia 41.9547
lfoot -14.7205 6.64468
ltoes -16.2725
1121
root 0.324227 15.3859 -1.76219 2.65065 0.638134 -0.427057
lowerback 18.7458 0.619705 -2.05909
upperback 8.07416 0.461415 -0.0453001
thorax -1.83658 0.187147 1.02746
lowerneck -3.21013 -7.53807 -16.6322
upperneck 20.3407 -11.1826 13.0043
head 8.49751 -5.54723 6.16795
rclavicle -2.68359e-015 3.57812e-015
rhumerus -1.36066 23.2139 -72.46
rradius 116.686
rwrist 7.11774
rhand 28.243 6.41721
rfingers 7.12502
rthumb 52.1206 -13.6165
lclavicle -2.68359e-015 3.57812e-015
lhumerus 4.85943 -25.7551 73.1802
lradius 127.634
lwrist 3.31349
lhand 4.21645 33.3141
lfingers 7.12502
lthumb 29.6223 60.9691
rfemur -26.0594 11.8795 15.0333
rtibia 44.1632
rfoot -15.7018 -14.2409
rtoes -19.7466
lfemur -25.7881 -9.92115 -15.1718
ltibia 42.0298
lfoot -14.7178 6.5581
ltoes -16.0938
